<?xml version="1.0" encoding="utf-8"?>
<!-- Generator: Adobe Illustrator 26.0.2, SVG Export Plug-In . SVG Version: 6.00 Build 0)  -->
<svg version="1.1" xmlns="http://www.w3.org/2000/svg" xmlns:xlink="http://www.w3.org/1999/xlink" x="0px" y="0px"
	 viewBox="0 0 288.6 212.9" style="enable-background:new 0 0 288.6 212.9;" xml:space="preserve">
<style type="text/css">
	.st0{fill:#00876A;}
	.st1{fill:none;}
	.st2{fill:#FFFFFF;}
	.st3{clip-path:url(#SVGID_00000140723686582813158190000004924407721229293969_);fill:#D42E1A;}
	.st4{clip-path:url(#SVGID_00000012472842772196553770000007417932311398718394_);fill:#D42E1A;}
	.st5{clip-path:url(#SVGID_00000033347080608704315180000010128753006247858580_);fill:#D42E1A;}
	.st6{clip-path:url(#SVGID_00000018937291943522635200000009625292293333121922_);fill:#D42E1A;}
	.st7{clip-path:url(#SVGID_00000072992025091422306000000000690024017702172589_);}
	.st8{clip-path:url(#SVGID_00000012468821963521199820000006573063034208575151_);}
	.st9{clip-path:url(#SVGID_00000002350709808935039930000002151055811906469026_);}
	.st10{clip-path:url(#SVGID_00000046320268030914152510000004725258921459883417_);}
	.st11{clip-path:url(#SVGID_00000178915512260813899630000011603774139267302575_);}
	.st12{clip-path:url(#SVGID_00000059990635944666090610000013893691415642485691_);}
	.st13{clip-path:url(#SVGID_00000070816995824688120950000000046719100266866340_);}
	.st14{clip-path:url(#SVGID_00000088853153918550868550000011481191179775299718_);}
	.st15{clip-path:url(#SVGID_00000158020475854199945960000017837205973671435417_);}
	.st16{clip-path:url(#SVGID_00000142886652830838576580000004510661610428354727_);}
	.st17{clip-path:url(#SVGID_00000129164375822122694050000007310798638209692834_);}
	.st18{fill:#3A9B84;}
	.st19{fill:none;stroke:#000000;stroke-width:0.5;stroke-miterlimit:10;}
	.st20{font-family:'Roboto-Medium';}
	.st21{font-size:18px;}
	.st22{font-family:'Roboto-Italic';}
	.st23{font-size:7px;}
	.st24{font-family:'Roboto-MediumItalic';}
	.st25{font-size:10px;}
	.st26{font-size:8px;}
</style>
<g id="Calque_1">
	<g id="textes">
		<rect x="-3" y="-0.4" class="st0" width="296.8" height="21.9"/>
	</g>
	<g id="tableau">
		<rect x="5" y="37" class="st1" width="71.1" height="13.3"/>
		<rect x="5" y="80.4" class="st1" width="64.1" height="14.2"/>
		<rect x="5" y="126.3" class="st1" width="50.8" height="13"/>
		<rect x="5" y="170.8" class="st1" width="62.2" height="13.1"/>
		<g>
			<g>
				
					<rect id="SVGID_00000021104251115299867960000002203992396799431840_" x="245.6" y="203.5" class="st2" width="42.5" height="8.5"/>
			</g>
			<g>
				<g>
					<defs>
						<rect id="SVGID_1_" x="245.6" y="203.5" width="42.5" height="8.5"/>
					</defs>
					<clipPath id="SVGID_00000170969107172826124610000010507102321722390150_">
						<use xlink:href="#SVGID_1_"  style="overflow:visible;"/>
					</clipPath>
					<path style="clip-path:url(#SVGID_00000170969107172826124610000010507102321722390150_);fill:#D42E1A;" d="M251.1,208.3
						L251.1,208.3v-0.1l0,0l0,0c-0.1-0.3-0.5-0.9-1.9-0.9c-0.1,0-0.2-0.1-0.2-0.2v-1.4c0-0.1,0.1-0.2,0.2-0.2h0.3
						c0.1,0,0.2,0.1,0.2,0.2v0.8h1.3c0-0.1,0-0.5,0-0.5c0-0.3,0-0.5-0.1-0.6c-0.1-0.4-0.3-0.7-0.8-0.9c-0.4-0.1-1.3-0.1-1.8,0
						c-0.4,0.1-0.8,0.5-0.9,0.9c-0.1,0.4-0.2,1.4-0.1,1.9l0,0c0,0,0,0.1,0.1,0.2l0,0l0,0c0.1,0.3,0.6,0.9,1.8,0.9h0.1
						c0.2,0,0.2,0.1,0.2,0.2v1.5c0,0.1-0.1,0.2-0.2,0.2H249c-0.1,0-0.2-0.1-0.2-0.2v-0.7h-1.4c0,0.2,0,0.4,0,0.6l0,0
						c0,0.3,0.1,0.6,0.3,0.8c0.1,0.1,0.3,0.2,0.4,0.3c0.4,0.1,1.5,0.1,2,0c0.3-0.1,0.7-0.4,0.8-0.7
						C251.2,209.9,251.2,208.8,251.1,208.3"/>
				</g>
			</g>
			<g>
				<g>
					<defs>
						<rect id="SVGID_00000145046941775783788340000009139275888024534971_" x="245.6" y="203.5" width="42.5" height="8.5"/>
					</defs>
					<clipPath id="SVGID_00000153702138443754547860000002873289799648219534_">
						<use xlink:href="#SVGID_00000145046941775783788340000009139275888024534971_"  style="overflow:visible;"/>
					</clipPath>
					<path style="clip-path:url(#SVGID_00000153702138443754547860000002873289799648219534_);fill:#D42E1A;" d="M254.4,204.4
						c-0.2-0.1-0.5-0.1-0.8-0.1s-0.6,0-0.8,0.1c-0.4,0.1-0.9,0.4-0.9,0.8c-0.2,1-0.2,4,0,5.1c0,0.1,0.1,0.2,0.2,0.3
						c0.2,0.1,0.4,0.3,0.6,0.4c0.5,0.1,1.5,0.1,1.9,0c0.2-0.1,0.4-0.2,0.6-0.4c0.1-0.1,0.2-0.2,0.2-0.3c0.1-1,0.2-4.1,0-5.1
						c0-0.1-0.1-0.3-0.2-0.4C254.9,204.7,254.7,204.5,254.4,204.4 M254,210c0,0.2-0.2,0.3-0.4,0.3s-0.4-0.1-0.4-0.3
						c-0.1-0.8-0.1-3.7,0-4.5c0-0.2,0.2-0.3,0.4-0.3s0.4,0.1,0.4,0.3C254,206.3,254,209.3,254,210"/>
				</g>
			</g>
			<g>
				<g>
					<defs>
						<rect id="SVGID_00000068651196639950934140000015871316739010710198_" x="245.6" y="203.5" width="42.5" height="8.5"/>
					</defs>
					<clipPath id="SVGID_00000097476368761480541470000004250049045727151265_">
						<use xlink:href="#SVGID_00000068651196639950934140000015871316739010710198_"  style="overflow:visible;"/>
					</clipPath>
					<polygon style="clip-path:url(#SVGID_00000097476368761480541470000004250049045727151265_);fill:#D42E1A;" points="
						285.7,210.5 285.7,208.8 286.2,208.8 286.2,210.5 286.2,211.1 286.2,211.1 284.3,211.1 284.3,210.5 					"/>
				</g>
			</g>
			<g>
				<g>
					<defs>
						<rect id="SVGID_00000072259235622608508430000013879688291028668060_" x="245.6" y="203.5" width="42.5" height="8.5"/>
					</defs>
					<clipPath id="SVGID_00000075128605461306550890000010870910435420288659_">
						<use xlink:href="#SVGID_00000072259235622608508430000013879688291028668060_"  style="overflow:visible;"/>
					</clipPath>
					<polygon style="clip-path:url(#SVGID_00000075128605461306550890000010870910435420288659_);fill:#D42E1A;" points="258,204.9 
						258,206.6 257.5,206.6 257.5,204.9 257.5,204.3 257.5,204.3 259.4,204.3 259.4,204.9 					"/>
				</g>
			</g>
			<g>
				<g>
					<defs>
						<rect id="SVGID_00000103987374603087796800000002745750721336090555_" x="245.6" y="203.5" width="42.5" height="8.5"/>
					</defs>
					<clipPath id="SVGID_00000173867864692414300990000006372840435817704856_">
						<use xlink:href="#SVGID_00000103987374603087796800000002745750721336090555_"  style="overflow:visible;"/>
					</clipPath>
					
						<rect x="259.4" y="205.6" style="clip-path:url(#SVGID_00000173867864692414300990000006372840435817704856_);" width="0.8" height="4.3"/>
				</g>
			</g>
			<g>
				<g>
					<defs>
						<rect id="SVGID_00000077314910512044352090000013415103001541225871_" x="245.6" y="203.5" width="42.5" height="8.5"/>
					</defs>
					<clipPath id="SVGID_00000056420770135180202290000005922136904105158027_">
						<use xlink:href="#SVGID_00000077314910512044352090000013415103001541225871_"  style="overflow:visible;"/>
					</clipPath>
					<polygon style="clip-path:url(#SVGID_00000056420770135180202290000005922136904105158027_);" points="260.9,205.6 
						261.8,205.6 262.2,207.6 262.2,208.2 262.4,208.2 262.3,207.6 262.3,205.6 263.1,205.6 263.1,209.9 262.2,209.9 261.7,207.8 
						261.7,207.3 261.6,207.3 261.6,207.8 261.6,209.9 260.9,209.9 					"/>
				</g>
			</g>
			<g>
				<g>
					<defs>
						<rect id="SVGID_00000018205933875790596800000014901944680552383630_" x="245.6" y="203.5" width="42.5" height="8.5"/>
					</defs>
					<clipPath id="SVGID_00000157271651996626701530000012439662595542637733_">
						<use xlink:href="#SVGID_00000018205933875790596800000014901944680552383630_"  style="overflow:visible;"/>
					</clipPath>
					<polygon style="clip-path:url(#SVGID_00000157271651996626701530000012439662595542637733_);" points="263.7,205.6 
						265.2,205.6 265.2,206.3 264.5,206.3 264.5,207.4 265.1,207.4 265.1,208 264.5,208 264.5,209.9 263.7,209.9 					"/>
				</g>
			</g>
			<g>
				<g>
					<defs>
						<rect id="SVGID_00000039851835657466479760000003591749231829593994_" x="245.6" y="203.5" width="42.5" height="8.5"/>
					</defs>
					<clipPath id="SVGID_00000069399173128267444480000007267935536259945349_">
						<use xlink:href="#SVGID_00000039851835657466479760000003591749231829593994_"  style="overflow:visible;"/>
					</clipPath>
					<path style="clip-path:url(#SVGID_00000069399173128267444480000007267935536259945349_);" d="M265.7,209v-2.6
						c0-0.6,0.4-0.9,1-0.9s1,0.4,1,0.9v2.6c0,0.6-0.4,0.9-1,0.9C266.1,210,265.7,209.6,265.7,209 M266.9,209v-2.6
						c0-0.1-0.1-0.2-0.2-0.2s-0.2,0.1-0.2,0.2v2.6c0,0.1,0.1,0.2,0.2,0.2C266.8,209.3,266.9,209.2,266.9,209"/>
				</g>
			</g>
			<g>
				<g>
					<defs>
						<rect id="SVGID_00000070804637830775087370000008891292664318730132_" x="245.6" y="203.5" width="42.5" height="8.5"/>
					</defs>
					<clipPath id="SVGID_00000147206386995843211860000000808487077376281001_">
						<use xlink:href="#SVGID_00000070804637830775087370000008891292664318730132_"  style="overflow:visible;"/>
					</clipPath>
					<path style="clip-path:url(#SVGID_00000147206386995843211860000000808487077376281001_);" d="M268.3,209.1v-2.7
						c0-0.6,0.4-0.9,1-0.9s1,0.4,1,0.9v0.6h-0.8v-0.6c0-0.1-0.1-0.2-0.2-0.2s-0.2,0.1-0.2,0.2v2.6c0,0.1,0.1,0.2,0.2,0.2
						s0.2-0.1,0.2-0.2v-1h-0.2v-0.6h1v2.5h-0.5v-0.2v-0.1h-0.1v0.1c-0.1,0.2-0.3,0.3-0.6,0.3C268.6,210,268.3,209.6,268.3,209.1"/>
				</g>
			</g>
			<g>
				<g>
					<defs>
						<rect id="SVGID_00000052064369383055954960000015534566609394325676_" x="245.6" y="203.5" width="42.5" height="8.5"/>
					</defs>
					<clipPath id="SVGID_00000103958451052366352050000018131028278085885330_">
						<use xlink:href="#SVGID_00000052064369383055954960000015534566609394325676_"  style="overflow:visible;"/>
					</clipPath>
					<path style="clip-path:url(#SVGID_00000103958451052366352050000018131028278085885330_);" d="M271,205.6h1.1
						c0.6,0,0.9,0.4,0.9,0.9v1c0,0.3-0.1,0.5-0.3,0.7l0.4,1.8h-0.8l-0.3-1.6h-0.2v1.6H271L271,205.6L271,205.6z M271.7,206.3v1.3
						h0.2c0.1,0,0.2-0.1,0.2-0.2v-0.8c0-0.1-0.1-0.2-0.2-0.2L271.7,206.3L271.7,206.3z"/>
				</g>
			</g>
			<g>
				<g>
					<defs>
						<rect id="SVGID_00000110450022120453428770000000787067173968754360_" x="245.6" y="203.5" width="42.5" height="8.5"/>
					</defs>
					<clipPath id="SVGID_00000101790186017638638910000011780336268255818881_">
						<use xlink:href="#SVGID_00000110450022120453428770000000787067173968754360_"  style="overflow:visible;"/>
					</clipPath>
					<path style="clip-path:url(#SVGID_00000101790186017638638910000011780336268255818881_);" d="M274,205.6h1.2l0.5,4.3h-0.8
						l-0.1-1.1h-0.5l-0.1,1.1h-0.8L274,205.6z M274.4,208.2h0.4l-0.1-1.5v-0.4h-0.1v0.4L274.4,208.2z"/>
				</g>
			</g>
			<g>
				<g>
					<defs>
						<rect id="SVGID_00000034078999080143482870000004523882482703431861_" x="245.6" y="203.5" width="42.5" height="8.5"/>
					</defs>
					<clipPath id="SVGID_00000042729615175056378630000004515586833796021928_">
						<use xlink:href="#SVGID_00000034078999080143482870000004523882482703431861_"  style="overflow:visible;"/>
					</clipPath>
					<path style="clip-path:url(#SVGID_00000042729615175056378630000004515586833796021928_);" d="M276.2,205.6h1.1
						c0.6,0,1,0.4,1,0.9v1c0,0.5-0.4,0.9-1,0.9H277v1.5h-0.8V205.6z M277,206.3v1.4h0.2c0.1,0,0.2-0.1,0.2-0.2v-0.9
						c0-0.1-0.1-0.2-0.2-0.2L277,206.3L277,206.3z"/>
				</g>
			</g>
			<g>
				<g>
					<defs>
						<rect id="SVGID_00000075870616494247900600000014707068328427676813_" x="245.6" y="203.5" width="42.5" height="8.5"/>
					</defs>
					<clipPath id="SVGID_00000143576470542986060010000014768804818791252394_">
						<use xlink:href="#SVGID_00000075870616494247900600000014707068328427676813_"  style="overflow:visible;"/>
					</clipPath>
					<polygon style="clip-path:url(#SVGID_00000143576470542986060010000014768804818791252394_);" points="278.7,205.6 
						279.5,205.6 279.5,207.4 280,207.4 280,205.6 280.8,205.6 280.8,209.9 280,209.9 280,208 279.5,208 279.5,209.9 278.7,209.9 
											"/>
				</g>
			</g>
			<g>
				<g>
					<defs>
						<rect id="SVGID_00000178887023223265541950000009328933346716427138_" x="245.6" y="203.5" width="42.5" height="8.5"/>
					</defs>
					<clipPath id="SVGID_00000138550966269325803510000013685913305257538208_">
						<use xlink:href="#SVGID_00000178887023223265541950000009328933346716427138_"  style="overflow:visible;"/>
					</clipPath>
					
						<rect x="281.4" y="205.6" style="clip-path:url(#SVGID_00000138550966269325803510000013685913305257538208_);" width="0.8" height="4.3"/>
				</g>
			</g>
			<g>
				<g>
					<defs>
						<rect id="SVGID_00000168804607189134399710000000293730593224804284_" x="245.6" y="203.5" width="42.5" height="8.5"/>
					</defs>
					<clipPath id="SVGID_00000113349478669752476730000018082073051805315210_">
						<use xlink:href="#SVGID_00000168804607189134399710000000293730593224804284_"  style="overflow:visible;"/>
					</clipPath>
					<polygon style="clip-path:url(#SVGID_00000113349478669752476730000018082073051805315210_);" points="282.8,205.6 
						284.3,205.6 284.3,206.3 283.6,206.3 283.6,207.4 284.2,207.4 284.2,208 283.6,208 283.6,209.2 284.3,209.2 284.3,209.9 
						282.8,209.9 					"/>
				</g>
			</g>
		</g>
	</g>
	<rect x="10.5" y="52.2" class="st18" width="65.6" height="9.8"/>
	<rect x="10.5" y="66.8" class="st18" width="65.6" height="9.8"/>
	<rect x="10.5" y="96.3" class="st18" width="65.6" height="9.8"/>
	<rect x="10.5" y="110.9" class="st18" width="65.6" height="9.8"/>
	<rect x="10.5" y="141.6" class="st18" width="65.6" height="9.8"/>
	<rect x="180.6" y="114.9" class="st18" width="68.2" height="12.8"/>
	<rect x="180.6" y="134.6" class="st18" width="75.7" height="12.8"/>
	<rect x="10.5" y="156.1" class="st18" width="65.6" height="9.8"/>
	<rect x="10.5" y="185.7" class="st18" width="65.6" height="9.8"/>
	<rect x="10.5" y="200.2" class="st18" width="65.6" height="9.8"/>
	<rect x="77.5" y="52.2" class="st18" width="9.7" height="9.8"/>
	<rect x="168.2" y="162.1" class="st18" width="9.7" height="9.8"/>
	<rect x="168.2" y="176.7" class="st18" width="9.7" height="9.8"/>
	<rect x="77.5" y="66.8" class="st18" width="9.7" height="9.8"/>
	<rect x="77.5" y="96.3" class="st18" width="9.7" height="9.8"/>
	<rect x="77.5" y="110.9" class="st18" width="9.7" height="9.8"/>
	<rect x="77.5" y="141.6" class="st18" width="9.7" height="9.8"/>
	<rect x="77.5" y="156.1" class="st18" width="9.7" height="9.8"/>
	<rect x="77.5" y="185.7" class="st18" width="9.7" height="9.8"/>
	<rect x="77.5" y="200.2" class="st18" width="9.7" height="9.8"/>
	<line class="st19" x1="90" y1="57.1" x2="90" y2="71.7"/>
	<line class="st19" x1="90" y1="101.2" x2="90" y2="115.7"/>
	<line class="st19" x1="90" y1="145.5" x2="90" y2="160"/>
	<line class="st19" x1="90" y1="190.6" x2="90" y2="205.1"/>
	<line class="st19" x1="181" y1="72.7" x2="181" y2="97"/>
	<line class="st19" x1="181" y1="162" x2="181" y2="186.6"/>
	<polyline class="st19" points="181,174.3 205.2,174.3 205.2,147.4 	"/>
	<polyline class="st19" points="181,85.1 205.2,85.1 205.2,114.9 	"/>
	<polyline class="st19" points="90,197.8 131.1,197.8 131.1,186.4 	"/>
	<polyline class="st19" points="90,152.8 131.1,152.8 131.1,162.1 	"/>
	<rect x="101.1" y="176.7" class="st18" width="65.6" height="9.8"/>
	<rect x="101.1" y="162.1" class="st18" width="65.6" height="9.8"/>
	<rect x="168.2" y="73.1" class="st18" width="9.7" height="9.8"/>
	<rect x="168.2" y="87.7" class="st18" width="9.7" height="9.8"/>
	<polyline class="st19" points="90,108.8 131.1,108.8 131.1,97.4 	"/>
	<polyline class="st19" points="90,63.7 131.1,63.7 131.1,73.1 	"/>
	<rect x="101.1" y="87.7" class="st18" width="65.6" height="9.8"/>
	<rect x="101.1" y="73.1" class="st18" width="65.6" height="9.8"/>
	
		<image style="overflow:visible;" width="194" height="346" xlink:href="F4EDF0823F5A0C44.png"  transform="matrix(0.24 0 0 0.24 233.28 89.3)">
	</image>
</g>
<g id="TEXTE">
	<text transform="matrix(1 0 0 1 80.2016 15.3185)" class="st2 st20 st21">Champions Cup</text>
	<text transform="matrix(1 0 0 1 5.0128 42.2895)" class="st22 st23">À Toulouse,</text>
	<text transform="matrix(1 0 0 1 5.0128 49.2895)" class="st22 st23">dimanche à 16 heures</text>
	<text transform="matrix(1 0 0 1 5.0128 85.7601)" class="st22 st23">À Bordeaux,</text>
	<text transform="matrix(1 0 0 1 5.0128 94.1601)" class="st22 st23">samedi à 16 heures</text>
	<text transform="matrix(1 0 0 1 5.0128 131.5948)" class="st22 st23">À Dublin,</text>
	<text transform="matrix(1 0 0 1 5.0128 138.5948)" class="st22 st23">samedi à 18h45</text>
	<text transform="matrix(1 0 0 1 5.0128 176.1121)" class="st22 st23">À Northampton,</text>
	<text transform="matrix(1 0 0 1 5.0128 183.1121)" class="st22 st23">samedi à 21 heures</text>
	<text transform="matrix(1 0 0 1 8.3255 32.9654)" class="st24 st25">Quarts de finale</text>
	<text transform="matrix(1 0 0 1 117.6431 42.9654)" class="st24 st25">Demi-finales</text>
	<text transform="matrix(1 0 0 1 128.0331 52.5654)" class="st24 st26">4 et 5 mai</text>
	<text transform="matrix(1 0 0 1 235.2478 52.8451)" class="st24 st25">Finale</text>
	<text transform="matrix(1 0 0 1 232.3978 62.4451)" class="st24 st26">le 25 mai</text>
	<text transform="matrix(1 0 0 1 231.1078 72.0451)" class="st24 st26">à Londres</text>
</g>
</svg>
